#!OML:ASF F:\VICON\USERDATA\INSTALL\SteveWalk\SteveWalk.ASF
:FULLY-SPECIFIED
:DEGREES
168
root 0.0802346 16.1569 -9.45705 16.1325 -3.45365 5.28735
lowerback -14.5793 0.208787 -7.60545
upperback -4.72268 1.44445 -2.2693
thorax 3.02373 0.724476 2.14378
lowerneck -5.91597 -1.28487 -0.0821009
upperneck 8.2863 -1.88661 1.85133
head 3.76435 -0.854829 0.530092
rclavicle -1.41479e-015 3.10104e-014
rhumerus -35.3132 0.322404 -88.7594
rradius 48.2531
rwrist -17.2633
rhand -16.9007 -36.7235
rfingers 7.12502
rthumb 9.33115 -66.497
lclavicle -1.41479e-015 3.10104e-014
lhumerus -70.6105 37.7913 32.7567
lradius 12.3388
lwrist -33.9444
lhand -16.83 -14.629
lfingers 7.12502
lthumb 9.39937 15.1414
rfemur -18.8255 -5.34577 12.3177
rtibia 67.8617
rfoot 16.3301 12.6606
rtoes -9.96342
lfemur -42.7891 0.388002 -29.3468
ltibia 37.5241
lfoot -11.1551 -3.63971
ltoes -5.61226
169
root 0.0928591 16.1777 -9.25997 16.1684 -3.51795 5.4836
lowerback -14.4436 0.13631 -7.66837
upperback -4.85263 1.33965 -2.37699
thorax 2.82307 0.681822 2.04486
lowerneck -5.77513 -1.23663 0.100728
upperneck 8.35152 -1.82509 1.69341
head 3.75441 -0.825784 0.449442
rclavicle -1.40524e-014 1.19271e-015
rhumerus -36.0069 -0.37956 -88.7724
rradius 46.8271
rwrist -16.6239
rhand -16.5142 -34.9442
rfingers 7.12502
rthumb 9.70405 -64.7007
lclavicle -1.40524e-014 1.19271e-015
lhumerus -69.202 37.9912 34.1498
lradius 12.4734
lwrist -33.4537
lhand -16.9055 -14.7222
lfingers 7.12502
lthumb 9.32651 15.0515
rfemur -20.7613 -5.54521 12.1522
rtibia 70.0066
rfoot 14.0682 11.2118
rtoes -12.2566
lfemur -41.9823 0.4087 -29.6977
ltibia 37.4346
lfoot -12.0767 -3.13754
ltoes -7.99686
170
root 0.105328 16.2024 -9.06022 16.1858 -3.53187 5.53235
lowerback -14.4773 0.0480565 -7.56913
upperback -4.87287 1.2126 -2.41191
thorax 2.83484 0.61812 1.93253
lowerneck -5.73393 -1.16779 0.134003
upperneck 8.45052 -1.73379 1.65494
head 3.77945 -0.780754 0.435688
rclavicle -1.15757e-014 2.70347e-014
rhumerus -36.3236 -1.07411 -88.6618
rradius 44.9735
rwrist -15.7448
rhand -15.9729 -33.6548
rfingers 7.12502
rthumb 10.2263 -63.3862
lclavicle -1.15757e-014 2.70347e-014
lhumerus -67.5889 38.2749 35.7736
lradius 12.5833
lwrist -33.1105
lhand -17.1528 -14.7782
lfingers 7.12502
lthumb 9.08794 15.006
rfemur -22.6428 -5.69192 12.171
rtibia 71.922
rfoot 12.0689 9.53443
rtoes -10.7796
lfemur -41.0851 0.43259 -29.8561
ltibia 37.2468
lfoot -12.6884 -3.1706
ltoes -7.89741
171
root 0.115844 16.23 -8.86686 16.155 -3.46805 5.41691
lowerback -14.3941 -0.015933 -7.30852
upperback -4.91304 1.08058 -2.40075
thorax 2.76573 0.554704 1.77601
lowerneck -5.32213 -1.13185 0.169736
upperneck 8.24678 -1.67758 1.60275
head 3.62533 -0.757662 0.416943
rclavicle -3.17628e-015 3.69739e-014
rhumerus -36.6079 -1.75673 -88.5511
rradius 42.8414
rwrist -15.2453
rhand -16.2697 -33.0618
rfingers 7.12502
rthumb 9.93999 -62.8071
lclavicle -3.17628e-015 3.69739e-014
lhumerus -65.5931 38.2806 37.9578
lradius 12.76
lwrist -32.5681
lhand -17.3305 -13.8421
lfingers 7.12502
lthumb 8.91639 15.9495
rfemur -24.549 -5.79962 12.4551
rtibia 73.575
rfoot 10.3917 8.45368
rtoes -10.6826
lfemur -40.1002 0.424412 -29.7742
ltibia 37.0482
lfoot -13.1257 -3.26641
ltoes -6.72431
172
root 0.124012 16.2555 -8.6797 16.2262 -3.44521 5.28015
lowerback -14.3543 -0.0772338 -7.11776
upperback -5.00139 0.961828 -2.34902
thorax 2.66428 0.500143 1.70361
lowerneck -5.07428 -1.07098 0.149289
upperneck 8.28363 -1.59378 1.61167
head 3.58941 -0.717449 0.428595
rclavicle 1.05977e-014 2.0276e-014
rhumerus -37.1107 -2.54526 -88.3214
rradius 40.9654
rwrist -14.6363
rhand -16.1535 -33.2226
rfingers 7.12502
rthumb 10.0521 -62.9625
lclavicle 1.05977e-014 2.0276e-014
lhumerus -63.4571 38.041 40.4222
lradius 12.9497
lwrist -32.0485
lhand -17.5442 -13.258
lfingers 7.12502
lthumb 8.71022 16.5423
rfemur -26.6534 -5.76343 12.8425
rtibia 74.9544
rfoot 8.97129 7.82792
rtoes -13.0723
lfemur -39.233 0.461481 -29.6728
ltibia 36.8397
lfoot -13.8078 -3.12249
ltoes -6.77342
173
root 0.132168 16.2829 -8.49287 16.4473 -3.44141 5.13748
lowerback -14.4163 -0.14878 -6.90886
upperback -5.14279 0.833197 -2.28471
thorax 2.56184 0.441353 1.63342
lowerneck -5.04569 -1.01287 -0.0151361
upperneck 8.53079 -1.5178 1.74427
head 3.67309 -0.678015 0.505071
rclavicle -3.22404e-015 1.51076e-014
rhumerus -37.6485 -3.36337 -88.0407
rradius 39.1554
rwrist -14.0368
rhand -16.1794 -33.3453
rfingers 7.12502
rthumb 10.0271 -63.0864
lclavicle -3.22404e-015 1.51076e-014
lhumerus -61.2431 37.6266 43.0595
lradius 13.1602
lwrist -31.5494
lhand -18.0138 -13.519
lfingers 7.12502
lthumb 8.25703 16.2996
rfemur -28.8064 -5.63287 13.2085
rtibia 75.9997
rfoot 7.42231 6.91968
rtoes -10.8503
lfemur -38.5821 0.588662 -29.6055
ltibia 36.6412
lfoot -14.4537 -3.01134
ltoes -6.73913
